<svg version="1.1" xmlns="http://www.w3.org/2000/svg" viewBox="0 0 200 80" width="200" height="80">
  <!-- svg-source:excalidraw -->
  
  <defs>
    <style class="style-fonts">
      @font-face {
        font-family: "Virgil";
        src: url("https://excalidraw.com/Virgil.woff2");
      }
      @font-face {
        font-family: "Cascadia";
        src: url("https://excalidraw.com/Cascadia.woff2");
      }
    </style>
  </defs>
  <g stroke-linecap="round" transform="translate(10 10) rotate(0 90 30)"><path d="M15 0 L165 0 L171.56 0.94 L176.25 3.75 L177.89 5.86 L179.77 11.48 L180 45 L179.06 51.56 L177.89 54.14 L174.14 57.89 L171.56 59.06 L165 60 L15 60 L8.44 59.06 L3.75 56.25 L2.11 54.14 L0.23 48.52 L0.23 11.48 L2.11 5.86 L3.75 3.75 L8.44 0.94 L15 0" stroke="none" stroke-width="0" fill="#dfecf9"></path><path d="M15 0 M15 0 C64.13 0, 113.27 0, 165 0 M15 0 C67.09 0, 119.19 0, 165 0 M165 0 C175 0, 180 5, 180 15 M165 0 C175 0, 180 5, 180 15 M180 15 C180 22.88, 180 30.76, 180 45 M180 15 C180 21.42, 180 27.85, 180 45 M180 45 C180 55, 175 60, 165 60 M180 45 C180 55, 175 60, 165 60 M165 60 C110.98 60, 56.96 60, 15 60 M165 60 C133.77 60, 102.54 60, 15 60 M15 60 C5 60, 0 55, 0 45 M15 60 C5 60, 0 55, 0 45 M0 45 C0 34.06, 0 23.12, 0 15 M0 45 C0 33.57, 0 22.13, 0 15 M0 15 C0 5, 5 0, 15 0 M0 15 C0 5, 5 0, 15 0" stroke="#1c17ff" stroke-width="2" fill="none"></path></g><g transform="translate(29 22) rotate(0 71.58203125 18.400000000000006)"><text x="71.58203125" y="0" font-family="Helvetica, Segoe UI Emoji" font-size="16px" fill="#1c17ff" text-anchor="middle" style="white-space: pre;" direction="ltr" dominant-baseline="text-before-edge">Short on time? Click</text><text x="71.58203125" y="18.4" font-family="Helvetica, Segoe UI Emoji" font-size="16px" fill="#1c17ff" text-anchor="middle" style="white-space: pre;" direction="ltr" dominant-baseline="text-before-edge">here to skip ahead!</text></g></svg>